HIERARCHY
ROOT hip
{
	OFFSET 0.00000 0.00000 0.00000
	CHANNELS 6 Xposition Yposition Zposition Zrotation Yrotation Xrotation 
	JOINT lhipjoint
	{
		OFFSET 0 0 0
		CHANNELS 3 Zrotation Yrotation Xrotation
		JOINT lfemur
		{
			OFFSET 1.56372 -1.72799 0.70867
			CHANNELS 3 Zrotation Yrotation Xrotation
			JOINT ltibia
			{
				OFFSET 2.35130 -6.46015 0.00000
				CHANNELS 3 Zrotation Yrotation Xrotation
				JOINT lfoot
				{
					OFFSET 2.61200 -7.17641 0.00000
					CHANNELS 3 Zrotation Yrotation Xrotation
					JOINT ltoes
					{
						OFFSET 0.14331 -0.39375 2.14044
						CHANNELS 3 Zrotation Yrotation Xrotation
						End Site
						{
							OFFSET 0.00000 -0.00000 1.09828
						}
					}
				}
			}
		}
	}
	JOINT rhipjoint
	{
		OFFSET 0 0 0
		CHANNELS 3 Zrotation Yrotation Xrotation
		JOINT rfemur
		{
			OFFSET -1.44129 -1.72798 0.70867
			CHANNELS 3 Zrotation Yrotation Xrotation
			JOINT rtibia
			{
				OFFSET -2.37728 -6.53152 0.00000
				CHANNELS 3 Zrotation Yrotation Xrotation
				JOINT rfoot
				{
					OFFSET -2.57235 -7.06747 0.00000
					CHANNELS 3 Zrotation Yrotation Xrotation
					JOINT rtoes
					{
						OFFSET -0.16712 -0.45916 2.29203
						CHANNELS 3 Zrotation Yrotation Xrotation
						End Site
						{
							OFFSET -0.00000 -0.00000 1.17668
						}
					}
				}
			}
		}
	}
	JOINT lowerback
	{
		OFFSET 0 0 0
		CHANNELS 3 Zrotation Yrotation Xrotation
		JOINT upperback
		{
			OFFSET -0.00494 2.11492 -0.01060
			CHANNELS 3 Zrotation Yrotation Xrotation
			JOINT thorax
			{
				OFFSET -0.00311 2.11673 -0.03832
				CHANNELS 3 Zrotation Yrotation Xrotation
				JOINT lowerneck
				{
					OFFSET 0 0 0
					CHANNELS 3 Zrotation Yrotation Xrotation
					JOINT upperneck
					{
						OFFSET -0.02660 1.69767 0.15040
						CHANNELS 3 Zrotation Yrotation Xrotation
						JOINT head
						{
							OFFSET 0.04444 1.62590 -0.48311
							CHANNELS 3 Zrotation Yrotation Xrotation
							End Site
							{
								OFFSET 0.01946 1.72260 -0.18002
							}
						}
					}
				}
				JOINT lclavicle
				{
					OFFSET 0 0 0
					CHANNELS 3 Zrotation Yrotation Xrotation
					JOINT lhumerus
					{
						OFFSET 3.49860 1.01778 -0.70261
						CHANNELS 3 Zrotation Yrotation Xrotation
						JOINT lradius
						{
							OFFSET 4.96035 -0.00000 -0.00000
							CHANNELS 3 Zrotation Yrotation Xrotation
							JOINT lwrist
							{
								OFFSET 3.20505 -0.00000 0.00000
								CHANNELS 3 Zrotation Yrotation Xrotation
								JOINT lhand
								{
									OFFSET 0 0 0
									CHANNELS 3 Zrotation Yrotation Xrotation
									JOINT lfingers
									{
										OFFSET 0.83669 -0.00000 -0.00000
										CHANNELS 3 Zrotation Yrotation Xrotation
										End Site
										{
											OFFSET 0.67456 -0.00000 -0.00000
										}
									}
								}
								JOINT lthumb
								{
									OFFSET 0 0 0
									CHANNELS 3 Zrotation Yrotation Xrotation
									End Site
									{
										OFFSET 0.68486 -0.00000 0.68486
									}
								}
							}
						}
					}
				}
				JOINT rclavicle
				{
					OFFSET 0 0 0
					CHANNELS 3 Zrotation Yrotation Xrotation
					JOINT rhumerus
					{
						OFFSET -3.61294 0.94679 -0.50702
						CHANNELS 3 Zrotation Yrotation Xrotation
						JOINT rradius
						{
							OFFSET -5.02023 -0.00000 0.00000
							CHANNELS 3 Zrotation Yrotation Xrotation
							JOINT rwrist
							{
								OFFSET -3.20652 -0.00000 0.00000
								CHANNELS 3 Zrotation Yrotation Xrotation
								JOINT rhand
								{
									OFFSET 0 0 0
									CHANNELS 3 Zrotation Yrotation Xrotation
									JOINT rfingers
									{
										OFFSET -0.79827 -0.00000 -0.00000
										CHANNELS 3 Zrotation Yrotation Xrotation
										End Site
										{
											OFFSET -0.64359 -0.00000 -0.00000
										}
									}
								}
								JOINT rthumb
								{
									OFFSET 0 0 0
									CHANNELS 3 Zrotation Yrotation Xrotation
									End Site
									{
										OFFSET -0.65342 -0.00000 0.65342
									}
								}
							}
						}
					}
				}
			}
		}
	}
}
MOTION
Frames: 13
Frame Time: 0.033333
10.4862 16.6159 -2.1577 130.7060 -87.3342 -116.1380 0.0000 -0.0000 0.0000 -23.0638 -9.0422 -31.5401 3.2729 11.1243 32.7003 0.4635 -2.9082 -12.1904 0.0721 -1.7318 -4.7651 0.0000 -0.0000 0.0000 13.3154 5.3166 -33.6959 -14.5529 -19.2732 73.8862 0.0027 1.5603 1.9033 -0.5919 4.9256 -13.6965 -3.4696 0.8890 0.3494 -1.8869 1.1959 1.8152 0.0201 0.5457 1.6356 -3.0813 -1.6459 -18.5666 4.3790 -3.6041 31.4663 1.6080 -1.5621 13.9634 0.0000 0.0000 0.0000 -83.8433 4.5128 35.0381 12.9139 -21.1610 -2.4221 -0.0000 -0.0000 0.0834 20.7188 5.3969 2.0375 -7.1250 0.0000 -0.0000 -4.9953 35.7104 1.1439 0.0000 0.0000 0.0000 87.9038 3.8542 31.7430 -24.8937 36.0951 -8.2272 0.0000 0.0000 18.1644 -22.2398 -7.8028 3.1775 7.1250 -0.0000 -0.0000 3.9557 -38.3734 0.6468
10.4978 16.6273 -2.1310 129.8000 -87.5312 -115.2660 0.0000 -0.0000 0.0000 -23.1341 -9.0400 -30.5045 3.2601 11.1046 32.6335 0.5065 -3.1226 -12.7375 0.0591 -1.5690 -4.3160 0.0000 -0.0000 0.0000 13.2186 5.5275 -35.3857 -14.5791 -19.2804 73.9654 0.0160 2.3442 1.5839 -0.5909 4.9216 -13.6850 -3.2173 0.6871 0.3640 -1.6863 0.9255 1.7816 0.0822 0.4155 1.6000 -3.1324 -1.7493 -18.4105 4.4504 -3.7672 31.3553 1.6161 -1.6331 13.8920 -0.0000 0.0000 0.0000 -83.7551 4.2374 35.6318 13.4451 -21.9360 -2.6172 -0.0000 0.0000 -0.6467 21.5867 5.3893 2.1282 -7.1250 0.0000 -0.0000 -4.2718 35.7459 0.9737 -0.0000 0.0000 0.0000 87.9441 3.6010 31.2081 -24.2009 35.3760 -7.8225 0.0000 0.0000 19.1442 -21.9062 -7.4385 2.9801 7.1250 -0.0000 -0.0000 4.2021 -37.9594 0.7299
10.5134 16.6290 -2.1052 129.5510 -87.4623 -115.0580 0.0000 -0.0000 0.0000 -23.4521 -8.9306 -29.5833 3.2651 11.1123 32.6594 0.5653 -3.2120 -13.4700 0.0755 -1.7728 -4.8783 0.0000 -0.0000 0.0000 12.8825 5.8487 -37.0800 -14.5319 -19.2675 73.8224 0.0330 3.2205 1.2325 -0.6337 5.0933 -14.1749 -3.2345 0.5289 0.4074 -1.5189 0.7121 1.7430 0.2609 0.3097 1.5388 -3.1794 -1.8611 -18.2240 4.4530 -3.9216 31.2451 1.5977 -1.7100 13.8123 0.0000 -0.0000 0.0000 -83.7579 3.8543 35.9607 13.9116 -22.6081 -2.7940 -0.0000 0.0000 -1.4394 22.5195 5.2383 2.1678 -7.1250 0.0000 -0.0000 -3.4817 35.6299 0.8029 0.0000 -0.0000 0.0000 87.9455 3.3187 30.6731 -23.5688 34.7049 -7.4596 0.0000 0.0000 20.0307 -21.7265 -7.2866 2.8933 7.1250 -0.0000 -0.0000 4.3391 -37.7847 0.7725
10.5310 16.6267 -2.0811 132.1290 -87.3626 -117.5650 0.0000 -0.0000 0.0000 -23.7093 -8.7726 -28.7358 3.2454 11.0820 32.5570 0.6236 -3.1511 -14.1776 0.0948 -1.9852 -5.4648 0.0000 -0.0000 0.0000 12.5954 6.3623 -38.8462 -14.4223 -19.2372 73.4902 0.0518 4.0740 0.8720 -0.5988 4.9537 -13.7765 -3.2100 0.3989 0.3364 -1.3739 0.5413 1.6753 0.3947 0.2259 1.5128 -3.2342 -1.9510 -17.9886 4.5570 -4.0741 31.0825 1.6216 -1.7745 13.7027 -0.0000 0.0000 0.0000 -83.6915 3.4986 36.2209 14.4192 -23.3308 -2.9921 -0.0000 0.0000 -2.0532 23.4833 5.1252 2.2226 -7.1250 0.0000 -0.0000 -2.6701 35.5546 0.6202 -0.0000 0.0000 0.0000 87.9691 3.0808 30.0683 -22.8207 33.8921 -7.0380 0.0000 0.0000 20.7912 -21.7126 -6.6323 2.6332 7.1250 -0.0000 -0.0000 4.2833 -37.0835 0.8362
10.5509 16.6153 -2.0596 134.1130 -87.1602 -119.4350 0.0000 -0.0000 0.0000 -24.0556 -8.5891 -27.9507 3.2249 11.0504 32.4502 0.6813 -3.2246 -14.8317 0.0934 -1.9710 -5.4256 0.0000 -0.0000 0.0000 12.2071 7.0113 -40.5906 -14.2298 -19.1823 72.9051 0.0671 4.7491 0.4312 -0.6250 5.0590 -14.0769 -3.2713 0.3234 0.2370 -1.2551 0.4457 1.6722 0.5506 0.1765 1.5671 -3.3443 -2.1197 -18.0649 4.6681 -4.3156 31.0052 1.6422 -1.8751 13.7050 -0.0000 0.0000 0.0000 -83.5920 2.8794 36.5598 14.9320 -24.0513 -3.1982 -0.0000 0.0000 -2.8801 24.3284 5.0830 2.2939 -7.1250 0.0000 -0.0000 -1.9627 35.5496 0.4560 -0.0000 0.0000 0.0000 88.0278 2.9694 29.3665 -22.2016 33.2042 -6.6959 0.0000 0.0000 21.1888 -21.7412 -6.8246 2.7131 7.1250 -0.0000 -0.0000 4.2785 -37.2913 0.8134
10.5536 16.6209 -2.0463 122.1560 -87.2476 -107.9360 0.0000 -0.0000 0.0000 -24.5881 -8.4781 -26.3085 3.1828 10.9853 32.2302 0.7272 -3.5099 -15.3049 0.1127 -2.1642 -5.9596 0.0000 -0.0000 0.0000 11.9815 6.7770 -41.4156 -13.9086 -19.0861 71.9251 0.0706 5.1574 -0.3617 -0.6100 4.9988 -13.9052 -3.5140 0.0062 0.6104 -1.1067 0.0073 1.7892 0.8335 -0.0477 1.4928 -3.4228 -2.2721 -17.7863 4.7848 -4.5526 30.7984 1.6610 -1.9783 13.5741 0.0000 0.0000 0.0000 -83.5288 2.4064 36.6654 15.4427 -24.7592 -3.4092 -0.0000 0.0000 -3.5522 25.0584 5.0163 2.3411 -7.1250 0.0000 -0.0000 -1.3501 35.5115 0.3148 0.0000 0.0000 0.0000 88.0166 2.6061 28.8827 -21.7275 32.6677 -6.4382 0.0000 0.0000 21.2774 -21.7558 -7.1361 2.8382 7.1250 -0.0000 -0.0000 4.2982 -37.6256 0.7819
10.5699 16.6170 -2.0307 119.7910 -87.2698 -105.6240 0.0000 -0.0000 0.0000 -24.8741 -8.1445 -25.3114 3.1409 10.9196 32.0094 0.7683 -3.6610 -15.7274 0.1348 -2.3664 -6.5195 0.0000 -0.0000 0.0000 11.8590 7.0872 -42.6904 -13.5034 -18.9564 70.6818 0.0688 5.3777 -0.9196 -0.6039 4.9744 -13.8356 -3.5543 -0.1614 0.7506 -0.9388 -0.2231 1.7824 1.0271 -0.1626 1.4174 -3.5602 -2.4322 -17.6930 4.9672 -4.8023 30.6738 1.7138 -2.0812 13.5244 0.0000 0.0000 0.0000 -83.4355 1.8628 36.7453 15.9699 -25.4799 -3.6330 -0.0000 0.0000 -4.1442 25.7969 4.7682 2.3008 -7.1250 0.0000 -0.0000 -0.7227 35.2722 0.1727 0.0000 0.0000 0.0000 88.0340 2.3186 28.2017 -21.2270 32.0923 -6.1701 0.0000 0.0000 21.4067 -21.7874 -7.5459 3.0047 7.1250 -0.0000 -0.0000 4.3150 -38.0663 0.7383
10.5821 16.6112 -2.0146 120.1950 -87.2280 -106.0320 0.0000 -0.0000 0.0000 -25.1786 -7.7304 -24.3329 3.0815 10.8258 31.6945 0.8200 -3.8773 -16.2424 0.1284 -2.3094 -6.3614 0.0000 -0.0000 0.0000 11.7363 7.5604 -43.8695 -12.9941 -18.7800 69.1071 0.0624 5.5000 -1.4733 -0.6337 5.0935 -14.1754 -3.5904 -0.2663 0.8218 -0.7957 -0.3668 1.7573 1.1938 -0.2341 1.3592 -3.7944 -2.6651 -17.6354 5.2061 -5.1531 30.6161 1.7889 -2.2318 13.5230 -0.0000 -0.0000 0.0000 -83.3217 1.2799 36.7839 16.5182 -26.2183 -3.8721 -0.0000 0.0000 -4.9422 26.4566 4.7156 2.3427 -7.1250 0.0000 -0.0000 -0.1714 35.2440 0.0411 -0.0000 -0.0000 0.0000 88.0966 2.0845 27.3498 -20.6367 31.4018 -5.8595 0.0000 0.0000 21.4588 -21.9419 -7.7551 3.1115 7.1250 -0.0000 -0.0000 4.2057 -38.3010 0.6953
10.5960 16.6066 -1.9995 118.8390 -87.2738 -104.6150 0.0000 -0.0000 0.0000 -25.3891 -7.4495 -23.3847 3.0285 10.7411 31.4117 0.8597 -4.0174 -16.6288 0.1308 -2.3316 -6.4231 0.0000 -0.0000 0.0000 11.6764 7.9450 -44.9693 -12.3895 -18.5505 67.2183 0.0520 5.5901 -2.0761 -0.5951 4.9386 -13.7336 -3.5976 -0.4146 0.8566 -0.6149 -0.5665 1.7184 1.3828 -0.3330 1.3113 -3.9431 -2.8479 -17.4959 5.3641 -5.4222 30.4595 1.8307 -2.3489 13.4530 0.0000 0.0000 0.0000 -83.2155 0.6664 36.7780 17.0806 -26.9639 -4.1238 -0.0000 0.0000 -5.8677 26.8745 4.6285 2.3417 -7.1250 0.0000 -0.0000 0.1795 35.1657 -0.0434 0.0000 0.0000 0.0000 88.1201 1.9028 26.5732 -20.0376 30.6876 -5.5505 0.0000 0.0000 21.2497 -22.2258 -8.2480 3.3548 7.1250 -0.0000 -0.0000 4.0164 -38.8503 0.6096
10.6112 16.6054 -1.9892 117.9030 -87.3059 -103.4890 0.0000 -0.0000 0.0000 -25.5564 -7.2144 -22.5380 2.9587 10.6280 31.0352 0.8973 -4.1449 -16.9871 0.1457 -2.4598 -6.7781 0.0000 -0.0000 0.0000 11.6101 8.4732 -46.0321 -11.6841 -18.2539 64.9839 0.0358 5.5234 -2.6594 -0.6008 4.9616 -13.7992 -3.6400 -0.5458 0.7809 -0.4381 -0.7387 1.6521 1.5868 -0.4187 1.2974 -4.1143 -3.0616 -17.4071 5.4977 -5.7242 30.3554 1.8614 -2.4852 13.4196 -0.0000 0.0000 0.0000 -83.0888 -0.0108 36.7461 17.6027 -27.6454 -4.3633 -0.0000 0.0000 -6.5509 27.3063 4.5739 2.3576 -7.1250 0.0000 -0.0000 0.5403 35.1240 -0.1310 -0.0000 0.0000 0.0000 88.1566 1.7547 25.6191 -19.4200 29.9372 -5.2388 0.0000 0.0000 21.0720 -22.4193 -8.7204 3.5792 7.1250 -0.0000 -0.0000 3.9029 -39.3724 0.5422
10.6260 16.6067 -1.9829 114.5770 -87.3690 -99.9697 0.0000 -0.0000 0.0000 -25.7012 -7.0681 -21.5937 2.8668 10.4763 30.5332 0.9365 -4.1892 -17.3627 0.1727 -2.6774 -7.3817 0.0000 -0.0000 0.0000 11.5831 8.8922 -46.9247 -10.8912 -17.8814 62.4276 0.0169 5.4062 -3.2385 -0.6429 5.1296 -14.2786 -3.6866 -0.7042 0.7228 -0.2786 -0.9481 1.5918 1.7752 -0.5231 1.2833 -4.3260 -3.2951 -17.3402 5.7119 -6.0691 30.2554 1.9233 -2.6338 13.4015 -0.0000 -0.0000 0.0000 -82.8924 -0.7414 36.7061 18.1356 -28.3305 -4.6134 -0.0000 0.0000 -7.2862 27.5582 4.5258 2.3580 -7.1250 0.0000 -0.0000 0.7510 35.0811 -0.1830 -0.0000 -0.0000 0.0000 88.2232 1.6375 24.5756 -18.7833 29.1485 -4.9248 0.0000 0.0000 21.3415 -22.6292 -9.2222 3.8221 7.1250 -0.0000 -0.0000 3.7792 -39.9288 0.4732
10.6330 16.6111 -1.9727 113.7860 -87.4861 -99.0809 0.0000 -0.0000 0.0000 -25.7832 -6.9577 -20.4120 2.7510 10.2806 29.8904 0.9859 -3.9882 -17.8538 0.2201 -3.0198 -8.3339 0.0000 -0.0000 0.0000 11.6527 9.3698 -47.5020 -10.0104 -17.4157 59.5233 -0.0032 5.3245 -3.8295 -0.6710 5.2383 -14.5894 -3.5511 -0.8055 0.6407 -0.1515 -1.0794 1.6301 1.8272 -0.5896 1.3761 -4.4500 -3.5182 -17.3561 5.8645 -6.4006 30.1641 1.9470 -2.7717 13.4001 -0.0000 -0.0000 0.0000 -82.5486 -1.4230 36.9218 18.8625 -29.2474 -4.9635 -0.0000 0.0000 -8.1163 28.0178 4.6581 2.4743 -7.1250 0.0000 -0.0000 1.1307 35.2511 -0.2708 -0.0000 -0.0000 0.0000 88.3421 1.6125 23.5118 -18.1606 28.3623 -4.6253 0.0000 0.0000 21.2194 -22.9708 -9.5876 4.0383 7.1250 -0.0000 -0.0000 3.5241 -40.3514 0.4045
10.6456 16.6166 -1.9683 110.4220 -87.5926 -95.5307 0.0000 -0.0000 0.0000 -25.8425 -6.9590 -19.2372 2.6160 10.0459 29.1254 1.0248 -3.8689 -18.2305 0.2316 -3.0971 -8.5493 0.0000 -0.0000 0.0000 11.6835 9.8480 -47.9984 -9.0780 -16.8577 56.3596 -0.0204 5.0767 -4.1928 -0.7582 5.5611 -15.5161 -3.5537 -0.9847 0.6068 0.0220 -1.3178 1.5931 2.0046 -0.7088 1.3753 -4.5399 -3.6948 -17.3824 5.9502 -6.6560 30.1043 1.9513 -2.8816 13.4057 -0.0000 -0.0000 0.0000 -82.2957 -2.0765 36.8075 19.5228 -30.0631 -5.2902 -0.0000 0.0000 -8.8556 28.2056 4.5181 2.4192 -7.1250 0.0000 -0.0000 1.2898 35.1013 -0.3136 -0.0000 -0.0000 0.0000 88.3878 1.5663 22.4460 -17.5266 27.5467 -4.3281 0.0000 0.0000 21.3268 -23.0912 -9.8481 4.1707 7.1250 -0.0000 -0.0000 3.4498 -40.6429 0.3711
